<svg width="137" height="19" viewBox="0 0 137 19" fill="none" xmlns="http://www.w3.org/2000/svg">
<path d="M11.7866 0.543945V2.375H2.63135V8.23438H11.3594V10.0654H2.63135V16.1689H11.9697V18H0.373047V0.543945H11.7866ZM23.7495 7.79492C22.8381 7.35547 21.7964 7.13574 20.6245 7.13574C18.0448 7.13574 16.7549 8.507 16.7549 11.2495C16.7549 14.4966 18.0448 16.1201 20.6245 16.1201C21.7964 16.1201 22.8381 15.9614 23.7495 15.644V7.79492ZM26.0078 17.231C24.4535 17.7437 22.5369 18 20.2583 18C16.4416 18 14.5332 15.7783 14.5332 11.335C14.5332 7.2334 16.5596 5.18262 20.6123 5.18262C21.7191 5.18262 22.7648 5.38607 23.7495 5.79297V0.543945H26.0078V17.231ZM40.7173 5.18262V18H39.167L38.7764 16.3643C37.222 17.4548 35.6595 18 34.0889 18C31.1429 18 29.6699 16.409 29.6699 13.2271V5.18262H31.9282V13.2637C31.9282 15.168 32.8722 16.1201 34.7603 16.1201C36.0542 16.1201 37.2871 15.5789 38.459 14.4966V5.18262H40.7173ZM60.2241 0.543945L52.8145 18H50.312L42.8657 0.543945H45.2461L51.6426 15.6562L57.8804 0.543945H60.2241ZM62.6045 18V0.543945H70.0508C73.3711 0.543945 75.0312 1.93962 75.0312 4.73096C75.0312 7.00146 73.4077 8.68197 70.1606 9.77246L76.1543 18H73.1758L67.6216 10.1509V8.67383C70.9582 8.14486 72.6265 6.86312 72.6265 4.82861C72.6265 3.21729 71.6987 2.41162 69.8433 2.41162H64.8628V18H62.6045Z" fill="white"/>
<path d="M97.834 17.3896C96.3285 17.8779 94.7008 18.1221 92.9512 18.1221C86.8477 18.1221 83.7959 15.0907 83.7959 9.02783C83.7959 3.29053 86.8477 0.421875 92.9512 0.421875C94.7008 0.421875 96.3285 0.666016 97.834 1.1543V3.10742C96.3285 2.53776 94.7822 2.25293 93.1953 2.25293C88.4346 2.25293 86.0542 4.51123 86.0542 9.02783C86.0542 13.87 88.4346 16.291 93.1953 16.291C94.7822 16.291 96.3285 16.0062 97.834 15.4365V17.3896ZM101.569 18V0.543945H104.438L110.847 15.1069L117.133 0.543945H119.88V18H117.866V3.68115L111.665 18H109.882L103.583 3.68115V18H101.569ZM123.786 17.3896V15.3145C125.617 15.9655 127.595 16.291 129.719 16.291C132.722 16.291 134.223 15.1924 134.223 12.9951C134.223 11.1234 133.116 10.1875 130.903 10.1875H128.657C125.003 10.1875 123.176 8.60059 123.176 5.42676C123.176 2.09017 125.515 0.421875 130.195 0.421875C132.229 0.421875 134.121 0.666016 135.871 1.1543V3.22949C134.121 2.57845 132.229 2.25293 130.195 2.25293C127.021 2.25293 125.434 3.31087 125.434 5.42676C125.434 7.2985 126.508 8.23438 128.657 8.23438H130.903C134.622 8.23438 136.481 9.82129 136.481 12.9951C136.481 16.4131 134.227 18.1221 129.719 18.1221C127.595 18.1221 125.617 17.8779 123.786 17.3896Z" fill="#E7505A"/>
</svg>
